<svg width="124" height="123" viewBox="0 0 124 123" fill="none" xmlns="http://www.w3.org/2000/svg">
<circle cx="61.7311" cy="61.4755" r="61.4035" fill="url(#paint0_linear_8_4)"/>
<path d="M39.2233 71.1435V67.5497C39.2233 62.3687 40.1816 58.6103 42.0983 56.2743C44.0149 53.9084 47.0996 52.7255 51.3522 52.7255C53.5384 52.7255 55.5898 53.1298 57.5065 53.9384C59.4531 54.747 61.2949 55.6754 63.0319 56.7235C64.4993 57.592 65.8769 58.4605 67.1647 59.329C68.4824 60.1676 69.845 60.5868 71.2526 60.5868C72.6002 60.5868 73.5735 60.1676 74.1725 59.329C74.7715 58.4605 75.0709 57.0979 75.0709 55.2411V51.1982H84.1452V54.7919C84.1452 59.9729 83.2916 63.7463 81.5846 66.1122C79.8776 68.4482 77.1373 69.6161 73.3639 69.6161C71.2376 69.6161 69.2161 69.2118 67.2995 68.4032C65.3828 67.5647 63.5709 66.6363 61.8639 65.6181C60.3366 64.6897 58.8691 63.8212 57.4616 63.0126C56.084 62.1741 54.6315 61.7548 53.1041 61.7548C51.4271 61.7548 50.1992 62.189 49.4205 63.0575C48.6718 63.8961 48.2975 65.2437 48.2975 67.1005V71.1435H39.2233Z" fill="white"/>
<defs>
<linearGradient id="paint0_linear_8_4" x1="61.7311" y1="0.0719604" x2="61.7311" y2="122.879" gradientUnits="userSpaceOnUse">
<stop stop-color="#373737"/>
<stop offset="1" stop-color="#030303"/>
</linearGradient>
</defs>
</svg>
